<svg width="21" height="23" viewBox="0 0 21 23" fill="none" xmlns="http://www.w3.org/2000/svg">
<path d="M20.2499 17.205L10.6552 21.9813C10.542 22.0299 10.4201 22.0549 10.297 22.0549C10.1739 22.0549 10.052 22.0299 9.93884 21.9813L0.343628 17.205C0.148315 17.1073 0.148315 16.9472 0.343628 16.849L2.64148 15.7074C2.75481 15.6588 2.87683 15.6338 3.00012 15.6338C3.12342 15.6338 3.24543 15.6588 3.35876 15.7074L9.93884 18.9789C10.0519 19.0277 10.1738 19.0529 10.297 19.0529C10.4202 19.0529 10.5421 19.0277 10.6552 18.9789L17.2352 15.7074C17.3485 15.6588 17.4704 15.6338 17.5936 15.6338C17.7168 15.6338 17.8388 15.6588 17.952 15.7074L20.2499 16.8514C20.4476 16.9472 20.4476 17.1073 20.2499 17.205ZM20.2499 10.5385L17.952 9.39442C17.8388 9.34584 17.7168 9.3208 17.5936 9.3208C17.4704 9.3208 17.3485 9.34584 17.2352 9.39442L10.6552 12.6698C10.5419 12.7181 10.4201 12.7431 10.297 12.7431C10.1739 12.7431 10.0521 12.7181 9.93884 12.6698L3.35876 9.39442C3.24543 9.34586 3.12342 9.32082 3.00012 9.32082C2.87683 9.32082 2.75481 9.34586 2.64148 9.39442L0.343628 10.5385C0.148315 10.6361 0.148315 10.7968 0.343628 10.8954L9.93884 15.6708C10.052 15.7193 10.1739 15.7444 10.297 15.7444C10.4201 15.7444 10.542 15.7193 10.6552 15.6708L20.2499 10.8954C20.4476 10.7968 20.4476 10.6366 20.2499 10.5385ZM0.343628 4.98573L9.93835 9.39442C10.1686 9.48476 10.4244 9.48476 10.6547 9.39442L20.2499 4.98573C20.4452 4.8949 20.4452 4.74696 20.2499 4.65662L10.6547 0.248421C10.4246 0.157102 10.1684 0.157102 9.93835 0.248421L0.343628 4.65662C0.145874 4.74696 0.145874 4.8949 0.343628 4.98573Z" fill="#000"/>
</svg>
